<svg xmlns="http://www.w3.org/2000/svg" width="26" height="28" viewBox="0 0 26 28"><path fill="#444" d="M23.156 16.406q.72.406.93 1.21t-.195 1.524l-1 1.72q-.405.718-1.21.93t-1.523-.196L16 19.204V24q0 .812-.593 1.406T14 26h-2q-.81 0-1.405-.594T10 24v-4.797l-4.155 2.39q-.72.407-1.523.196t-1.21-.93l-1-1.72q-.407-.72-.196-1.523t.93-1.21L7.002 14l-4.156-2.406q-.72-.406-.93-1.21T2.11 8.86l1-1.72q.407-.718 1.212-.93t1.523.196L10 8.796V4q0-.812.595-1.406T12 2h2q.813 0 1.407.594T16 4v4.797l4.157-2.39q.72-.407 1.523-.196t1.21.93l1 1.72q.407.72.196 1.523t-.93 1.21L19 14z"/></svg>