<svg xmlns="http://www.w3.org/2000/svg" width="26" height="28" viewBox="0 0 26 28"><path fill="#444" d="M12 5v11q0 1.625-.633 3.102t-1.71 2.555-2.556 1.71-3.1.634H3q-.407 0-.704-.296T2 23v-2q0-.405.296-.702T3 20h1q1.655 0 2.827-1.17T8 16v-.5q0-.624-.44-1.06T6.5 14H3q-1.25 0-2.126-.874T0 11V5q0-1.25.874-2.124T3 2h6q1.25 0 2.124.876T12 5zm14 0v11q0 1.625-.633 3.102t-1.71 2.555-2.556 1.71-3.1.634h-1q-.407 0-.704-.296T16 23v-2q0-.405.296-.702T17 20h1q1.655 0 2.827-1.17T22 16v-.5q0-.624-.44-1.06T20.5 14H17q-1.25 0-2.126-.874T14 11V5q0-1.25.874-2.124T17 2h6q1.25 0 2.124.876T26 5z"/></svg>