<svg xmlns="http://www.w3.org/2000/svg" width="26" height="28" viewBox="0 0 26 28"><path fill="#444" d="M12 15v6q0 1.25-.875 2.125T9 24H3q-1.25 0-2.125-.875T0 21V10q0-1.625.633-3.102t1.71-2.555T4.9 2.633 8 1.998h1q.407 0 .704.296T10 3v2q0 .405-.296.702T9 6H8Q6.346 6 5.174 7.17T4 10v.5q0 .624.44 1.06T5.5 12H9q1.25 0 2.126.874T12 15zm14 0v6q0 1.25-.875 2.125T23 24h-6q-1.25 0-2.125-.875T14 21V10q0-1.625.633-3.102t1.71-2.555 2.556-1.71 3.1-.634h1q.407 0 .704.296T24 3v2q0 .405-.296.702T23 6h-1q-1.655 0-2.827 1.17T18 10v.5q0 .624.44 1.06t1.06.44H23q1.25 0 2.126.874T26 15z"/></svg>