<svg xmlns="http://www.w3.org/2000/svg" width="24" height="28" viewBox="0 0 24 28"><path fill="#444" d="M18.328 16.61q0-.782-.305-1.43t-.758-1.07-1.14-.767-1.29-.53-1.367-.36l-1.625-.375q-.47-.11-.688-.164t-.547-.18-.47-.25-.257-.328-.116-.47q0-1.202 2.25-1.202.672 0 1.203.187t.844.446.595.523.625.452.75.187q.734 0 1.18-.5t.445-1.204q0-.86-.875-1.555t-2.22-1.054-2.843-.36q-1.062 0-2.063.243t-1.867.733-1.39 1.36-.524 2.007q0 .953.297 1.664t.875 1.18 1.25.758 1.61.508l2.28.562q1.406.344 1.75.562.5.313.5.938 0 .61-.625 1.008t-1.64.398q-.798 0-1.43-.25t-1.017-.602-.71-.703-.72-.602-.844-.25q-.782 0-1.18.47t-.4 1.172q0 1.437 1.907 2.46t4.547 1.024q1.14 0 2.187-.29t1.915-.835 1.383-1.46.516-2.055zM24 20q0 2.484-1.758 4.242T18 26q-2.03 0-3.656-1.25Q13.14 25 12 25q-2.234 0-4.273-.867T4.21 21.79t-2.343-3.517T1 14q0-1.14.25-2.344Q0 10.03 0 8q0-2.484 1.758-4.242T6 2q2.03 0 3.656 1.25Q10.86 3 12 3q2.234 0 4.273.867T19.79 6.21t2.343 3.517T23 14q0 1.14-.25 2.344Q24 17.97 24 20z"/></svg>