<svg xmlns="http://www.w3.org/2000/svg" width="25" height="28" viewBox="0 0 25 28"><path fill="#444" d="M4 21q0-.406-.297-.703T3 20q-.422 0-.71.297T2 21q0 .422.29.71T3 22q.406 0 .703-.29T4 21zm2.5-8v10q0 .406-.297.703T5.5 24H1q-.406 0-.703-.297T0 23V13q0-.406.297-.703T1 12h4.5q.406 0 .703.297T6.5 13zM25 13q0 1.344-.86 2.328.235.688.235 1.188.047 1.188-.672 2.14.266.876 0 1.83-.234.89-.844 1.468.14 1.75-.767 2.828-1 1.188-3.078 1.22H17q-1.032 0-2.25-.243t-1.9-.454-1.882-.617q-1.922-.673-2.47-.69-.405-.015-.702-.304T7.5 23V12.986q0-.39.28-.68t.672-.32q.375-.03 1.188-.922t1.578-1.89q1.062-1.36 1.578-1.876.28-.28.484-.75t.273-.758.21-.946q.11-.61.196-.953t.304-.81.53-.782Q15.093 2 15.5 2q.72 0 1.29.165t.937.406.625.634.375.703.187.78.078.704.008.61q0 .594-.148 1.188t-.297.938-.43.875q-.047.095-.156.282t-.172.344-.125.375h4.328q1.22 0 2.11.892t.89 2.11z"/></svg>