<svg xmlns="http://www.w3.org/2000/svg" width="25" height="28" viewBox="0 0 25 28"><path fill="#444" d="M4 9q0 .406-.297.703T3 10q-.422 0-.71-.297T2 9q0-.422.29-.71T3 8q.406 0 .703.29T4 9zm2.5 8V7q0-.406-.297-.703T5.5 6H1q-.406 0-.703.297T0 7v10q0 .406.297.703T1 18h4.5q.406 0 .703-.297T6.5 17zm17.64-2.328Q25 15.625 25 17q-.016 1.22-.898 2.11T22 20h-4.328q.063.22.125.375t.172.344.155.28q.28.578.422.89t.297.915T19 24q0 .375-.008.61t-.078.702-.187.78-.375.704-.625.633-.938.405T15.5 28q-.406 0-.703-.298-.313-.313-.53-.78t-.306-.813-.194-.954q-.14-.656-.21-.945t-.274-.757-.484-.75q-.516-.516-1.578-1.875-.766-1-1.578-1.89t-1.188-.923q-.39-.03-.672-.32t-.28-.68V7q0-.407.296-.696T8.5 6q.548-.017 2.47-.69 1.203-.405 1.883-.616t1.898-.453T17 4h2.017q2.078.03 3.078 1.218.906 1.078.766 2.828.61.578.845 1.47.266.952 0 1.827.72.953.672 2.14 0 .5-.234 1.19z"/></svg>