<svg xmlns="http://www.w3.org/2000/svg" width="30" height="28" viewBox="0 0 30 28"><path fill="#444" d="M29.953 8.125q.36 1-2.344 4.594-.376.5-1.017 1.327-1.22 1.563-1.406 2.047-.266.64.22 1.266.265.328 1.265 1.28h.016l.063.064q2.204 2.047 2.985 3.453.047.078.102.195t.11.414-.01.53-.39.43-.922.196l-4 .063q-.375.078-.875-.078t-.812-.344l-.313-.187q-.47-.328-1.094-1t-1.07-1.21-.952-.907-.883-.243q-.047.016-.125.055t-.266.227-.336.46-.266.812-.102 1.21q0 .235-.055.43t-.117.29l-.063.078q-.28.297-.828.344H14.67q-1.11.063-2.28-.258t-2.056-.828-1.61-1.03-1.1-.9l-.392-.374q-.156-.156-.43-.47t-1.117-1.42-1.656-2.36-1.915-3.297-2.04-4.25q-.093-.25-.093-.422t.047-.25L.09 7.97q.234-.296.89-.296l4.282-.03q.187.03.36.1t.25.134l.077.047q.25.172.376.5.313.78.72 1.617t.64 1.273l.25.453q.453.938.875 1.625t.76 1.07.647.602.53.22.423-.08q.03-.015.078-.077t.187-.344.21-.734.15-1.266 0-1.953q-.032-.624-.142-1.14t-.22-.72l-.093-.186q-.39-.53-1.328-.672-.203-.03.078-.375.266-.297.594-.47.828-.405 3.734-.374 1.28.016 2.11.203.312.078.522.21t.32.376.164.5.055.71-.017.86-.04 1.102-.022 1.29q0 .17-.015.655t-.008.75.055.632.18.61.352.382l.266.063q.14.033.406-.172t.594-.54.812-1.046 1.062-1.68q.938-1.626 1.672-3.517.063-.156.156-.273t.172-.164l.063-.047.078-.04.203-.047.313-.008 4.5-.03q.61-.08 1 .038t.485.258z"/></svg>